<svg width="60" height="60" viewBox="0 0 80 81" fill="none" xmlns="http://www.w3.org/2000/svg">
    <rect y="0.572266" width="80" height="80" rx="40" fill="white" />
    <path
        d="M50.2221 26.8389C48.703 25.1048 47.8659 22.8777 47.8665 20.5723H40.9999V48.1278C40.9469 49.619 40.3173 51.0314 39.2438 52.0677C38.1702 53.1039 36.7364 53.6832 35.2443 53.6834C32.0887 53.6834 29.4665 51.1056 29.4665 47.9056C29.4665 44.0834 33.1554 41.2167 36.9554 42.3945V35.3723C29.2887 34.35 22.5776 40.3056 22.5776 47.9056C22.5776 55.3056 28.711 60.5723 35.2221 60.5723C42.1999 60.5723 47.8665 54.9056 47.8665 47.9056V33.9278C50.651 35.9275 53.994 37.0004 57.4221 36.9945V30.1278C57.4221 30.1278 53.2443 30.3278 50.2221 26.8389Z"
        fill="#81D1FE" />
</svg>