<svg width="380" height="390" viewBox="0 0 380 390" fill="none"
    xmlns="http://www.w3.org/2000/svg">
    <path
        d="M164.697 259.98C163.334 263.121 161.575 266.261 159.518 269.328C153.793 277.958 150.745 279.614 145.393 283.645C154.016 289.159 163.533 293.734 173.049 295.935C172.528 293.239 163.855 283.027 163.359 277.389C162.913 272.097 163.582 265.396 164.672 259.98H164.697Z"
        fill="#81D1FE" />
    <path
        d="M153.869 269.351C157.933 263.218 160.882 256.838 161.898 250.78C163.658 240.271 161.675 225.78 158.107 215.048C150.326 191.755 139.595 168.584 131.293 145.291C118.481 109.336 115.929 74.1734 127.13 37.5267C130.302 27.1163 134.044 18.7088 138.802 9.16381C139.843 7.08667 142.99 1.84435 143.065 0.0886752C137.365 -0.381155 127.353 2.31419 121.232 5.35572C98.136 16.8295 92.6345 46.6513 94.1462 68.758C96.1783 98.6046 104.183 124.396 117.094 151.547L117.961 154.317C111.419 147.863 101.358 128.105 97.4421 120.143C88.2482 101.473 77.5427 70.8104 76.2292 50.6325C74.3211 21.1074 79.996 18.4615 79.6739 14.3319C62.1039 22.2449 51.9683 37.0816 49.7132 55.0835C44.4348 97.2198 99.2016 151.473 117.416 184.509C116.747 184.336 90.3546 154.589 87.0339 150.83C68.6462 129.885 49.8371 106.79 40.3458 81.3445C38.0412 75.1625 36.703 69.1784 36.0339 63.1695C34.8939 52.9074 36.9012 49.0252 36.7278 44.8709C25.2292 56.7155 21.0659 74.4949 23.3954 89.7273C28.1038 120.612 59.031 150.137 81.2847 171.799C91.8911 182.135 102.448 191.408 113.104 201.942C114.764 203.574 121.43 209.658 121.877 212.106C110.874 202.66 100.069 193.065 88.6199 184.089C67.6797 167.67 26.3691 137.328 12.3429 116.062C6.69273 107.507 7.83268 105.528 5.77582 101.448C1.26562 108.867 2.00906 121.206 3.71897 127.462C6.02364 135.845 11.0295 144.277 17.3983 151.77C46.2438 185.721 95.9057 208.1 124.974 234.979C137.786 246.824 148.467 266.185 138.976 282.184C138.852 282.407 138.133 283.594 138.084 283.718L137.761 284.558C137.761 284.558 137.588 285.028 137.662 285.003C137.737 284.954 137.588 285.3 137.563 285.448C144.378 280.008 147.426 279.143 153.919 269.4L153.869 269.351Z"
        fill="#81D1FE" />
    <path
        d="M68.7933 205.65C46.1679 192.297 24.8559 181.961 6.146 163.093C3.81655 160.744 2.80051 158.692 0.396722 156.367C-1.68491 164.725 4.78302 179.611 11.4492 187.549C36.5527 217.42 88.3706 224.517 110.649 247.564C87.6271 232.677 70.6271 232.801 46.6883 225.16C44.1358 224.344 39.8734 222.44 37.3457 221.871C39.0061 241.308 84.5295 243.063 100.241 256.268C105.222 260.472 107.601 265.763 108.196 270.313C109.608 281.194 93.872 286.906 85.0251 288.835C82.0761 289.477 72.5601 291.06 70.6767 290.269C74.7408 293.459 90.6257 295.709 96.2015 295.931C115.828 296.698 137.363 286.263 135.282 266.555C132.382 238.958 89.7088 218.014 68.8181 205.675L68.7933 205.65Z"
        fill="#81D1FE" />
    <path
        d="M326.941 127.584C325.33 128.153 310.734 140.516 310.362 142.668C310.139 143.978 317.4 153.968 317.103 158.024C317.995 156.985 324.81 147.465 325.132 146.426C326.172 142.89 322.901 137.871 325.156 131.54C325.702 130.007 326.47 128.894 326.966 127.559L326.941 127.584Z"
        fill="#81D1FE" />
    <path
        d="M330.065 126.89C326.546 133.517 329.495 136.114 328.504 142.741C328.876 142.568 336.136 132.85 336.384 132.429C337.648 130.253 337.797 127.583 337.351 124.887C336.632 120.733 337.995 120.066 338.441 117.172C336.781 118.483 331.428 124.294 330.04 126.89H330.065Z"
        fill="#81D1FE" />
    <path
        d="M355.685 100.95C355.19 100.95 354.942 101.049 354.322 101.617C353.802 102.087 353.406 102.508 352.91 103.002C351.82 104.09 351.101 104.758 350.06 105.722C347.978 107.651 346.442 109.258 344.484 111.014C338.71 116.256 339.9 117.295 340.519 122.488C340.767 124.664 340.222 125.48 340.024 127.235L348.598 114.352C349.763 112.473 351.497 109.876 352.786 107.923C353.703 106.513 356.801 102.433 356.33 101.123C356.131 101.024 356.478 100.974 355.685 100.974V100.95Z"
        fill="#81D1FE" />
    <path
        d="M379.8 95.8601C379.057 94.327 371.573 93.3379 369.813 93.0411C370.358 91.7306 371.647 89.9502 372.366 88.6396C372.787 87.873 372.762 86.785 371.746 86.513C371.102 86.3399 369.987 86.5624 369.342 86.7108C364.683 87.8483 362.874 89.3072 359.38 92.4229C359.207 91.5822 359.083 91.8047 359.207 90.9145C359.281 90.42 359.405 89.9749 359.578 89.505C359.95 88.5159 360.619 87.601 361.363 86.8344C363.94 84.238 365.402 86.3893 364.287 87.2301C363.816 87.5763 363.172 87.2301 363.419 86.5872C363.766 86.2904 363.816 86.513 364.014 86.5872C363.94 85.9442 362.924 86.0431 363.122 87.0323C363.296 87.873 364.163 87.7741 364.634 87.2301C365.501 86.241 364.361 84.8809 362.825 85.4991C361.685 85.969 360.545 87.2054 359.95 88.2687C359.653 88.7632 359.43 89.2825 359.256 89.8512C359.182 90.0985 358.959 91.4338 358.934 91.4586C358.166 91.6316 357.943 88.5901 357.918 88.0461C357.844 87.057 358.017 85.4497 358.364 84.5347C358.785 83.4467 359.925 81.8147 361.263 81.9878C361.957 82.0867 362.279 82.9522 361.933 83.4962C361.363 84.3616 360.446 82.8285 361.511 82.9027C361.239 82.3587 360.669 82.7543 360.669 83.1747C360.669 83.5951 361.09 84.0402 361.511 84.0402C362.403 84.0402 362.602 82.6554 362.056 82.062C361.462 81.419 360.396 81.7652 359.777 82.1609C357.918 83.3973 357.472 86.6119 357.769 88.6396C357.868 89.2825 358.067 90.3705 358.339 90.964C358.661 91.6564 358.017 91.5327 357.918 92.052C357.769 92.7939 358.067 92.8186 358.067 93.1401C357.868 93.4368 357.447 93.2884 357.298 94.1292C357.175 94.7226 357.348 94.8463 357.447 95.3656C357.447 95.3656 357.175 97.2449 357.199 97.7642C357.224 98.5802 357.745 102.413 358.463 102.71L358.81 102.413C358.959 102.71 359.083 103.847 359.231 104.268C359.504 105.133 359.777 105.38 360.52 105.875C361.858 106.74 362.28 107.68 361.734 109.238C361.462 110.029 361.04 110.301 360.693 110.919C360.247 111.711 360.842 112.527 361.487 111.785C361.858 111.364 362.131 110.598 362.23 110.054C362.329 109.559 362.329 108.62 362.428 108.298C363.94 110.004 365.575 109.238 366.121 112.576C366.269 113.516 365.551 114.727 365.873 115.148C366.245 115.642 366.74 115.098 366.864 114.653C367.261 113.095 366.393 111.785 365.947 110.623C365.476 109.386 365.551 108.916 366.691 108.15C367.88 107.359 368.004 107.185 368.177 105.801C368.376 104.292 369.441 104.416 370.11 103.476C370.457 102.957 370.358 102.71 371.027 102.388C373.505 101.177 375.785 99.7177 378.09 98.2093C378.734 97.7889 380.37 96.8492 379.924 95.9096L379.8 95.8601Z"
        fill="#81D1FE" />
    <path
        d="M311.626 187.454C310.882 188.814 309.866 196.059 309.37 198.136C309.247 194.847 309.866 186.514 310.56 183.522C311.601 179.12 312.79 175.386 313.137 170.391C313.856 160.352 311.948 151.252 307.338 144.724C305.653 145.144 303.349 147.914 300.97 148.631C301.688 147.37 303.72 145.466 304.835 143.883C310.064 136.489 315.814 122.419 317.449 113.369C318.019 110.179 318.911 100.683 316.954 98.6557C316.557 99.175 316.161 100.461 315.789 101.079C312.642 106.544 306.521 109.14 300.796 111.712C294.328 114.605 292.296 115.693 287.067 120.095C286.076 120.936 284.292 122.914 283.4 123.408C285.308 119.031 288.505 116.089 289.446 114.407C287.637 111.044 277.427 101.054 272.967 98.4826C242.213 75.3868 199.688 66.3858 157.907 85.1048C146.73 89.9762 136.273 96.9495 127.104 105.58C128.863 118.784 132.184 131.989 136.917 145.292C145.219 168.586 155.949 191.756 163.73 215.05C166.828 224.298 168.711 236.365 168.042 246.232C173.544 226.4 181.028 210.129 191.312 198.804C191.51 191.064 192.328 183.497 194.36 177.068C190.519 174.397 189.206 171.306 183.035 168.586C179.293 166.929 176.567 162.775 173.816 159.758C167.621 152.983 160.583 146.084 155.007 138.937C153.496 138.468 152.257 138.295 150.844 136.984C149.357 135.599 148.143 133.547 146.78 132.014C145.268 130.332 143.236 130.233 141.328 129.219C140.213 128.626 135.876 126.203 138.206 124.744C140.312 123.977 144.847 129.417 146.73 126.598C147.127 125.461 142.443 119.823 141.204 118.117C140.362 116.979 139.94 116.262 141.328 115.1C143.856 115.619 146.235 121.158 148.415 122.815C148.738 121.653 145.813 115.471 145.045 113.74C144.624 112.751 143.781 111.588 144.797 110.476C147.127 107.929 150.795 119.526 151.538 120.688L151.067 114.358C150.894 113.196 149.828 108.992 151.811 108.3C153.223 108.25 153.297 110.649 153.52 111.663C153.793 112.998 154.066 114.333 154.313 115.644C154.784 118.117 155.553 120.837 156.593 123.235C156.916 121.9 155.825 115.99 159.27 115.842C159.641 116.707 159.22 119.007 159.22 120.268C159.22 123.507 159.964 124.472 159.988 129.046C159.988 130.851 168.959 139.061 170.223 140.495L179.07 146.331C181.87 148.013 184.621 149.694 187.149 151.87C189.974 154.318 191.411 156.099 194.781 158.126C197.532 159.783 199.886 161.366 202.835 162.231C202.885 162.231 203.058 162.281 203.331 162.33C206.478 157.706 208.808 160.673 211.013 159.758C216.837 155.703 215.3 144.501 211.013 140.025C208.709 137.627 201.918 133.027 206.156 129.664C208.585 127.711 207.569 129.145 208.188 126.079L209.502 125.634L210.096 123.656L213.417 122.073C212.203 115.817 217.853 120.194 220.926 117.721L219.91 116.138C222.264 108.72 240.33 103.255 250.366 115.619C252.349 118.042 255.149 118.661 257.379 120.985C264.739 128.626 260.576 138.641 256.636 146.826C253.662 152.983 251.01 158.027 248.582 163.047C248.235 167.201 248.037 171.603 248.086 176.697C248.185 188.739 249.771 207.434 245.831 218.66C244.716 219.254 243.353 219.649 242.089 219.625L241.073 215.371L240.8 219.748C239.041 219.946 237.182 219.699 235.448 219.179L235.175 217.448L234.779 218.141C234.927 218.561 235.101 218.957 235.274 219.352C239.66 229.046 258.321 231.098 264.194 237.824C279.063 245.712 278.295 255.233 281.145 269.352C284.961 278.625 286.869 284.412 299.408 282.384C302.209 282.483 305.628 288.962 314.773 284.98C320.026 282.705 334.449 276.944 335.391 270.984C335.887 269.204 317.92 215.149 316.309 208.373C314.674 201.499 313.41 194.006 311.551 187.429L311.626 187.454ZM287.786 185.104C286.844 185.302 286.026 185.327 285.283 185.253C288.876 181.964 289.57 176.746 287.464 171.306C286.349 171.949 283.647 172.567 282.408 172.147C283.152 172.048 284.564 171.727 285.233 171.479C285.903 171.232 286.522 170.935 287.117 170.54L287.166 170.639C286.993 170.268 286.844 169.897 286.646 169.526C285.556 170.193 282.78 170.812 281.516 170.391C282.26 170.292 283.672 169.971 284.341 169.724C285.01 169.476 285.63 169.18 286.225 168.784L286.299 168.908C286.101 168.537 285.878 168.166 285.655 167.795C284.44 168.561 281.219 169.303 279.782 168.784C280.624 168.66 282.235 168.289 283.003 168.017C283.747 167.745 284.465 167.399 285.134 166.954C285.01 166.756 284.862 166.558 284.738 166.385C283.722 166.781 281.962 167.004 281.045 166.558C281.64 166.509 282.78 166.336 283.3 166.163C283.623 166.064 283.92 165.866 284.217 165.693C283.251 164.432 282.161 163.171 280.872 161.984L281.021 161.44C285.159 166.855 290.214 164.086 291.677 167.968C293.684 173.334 289.843 182.681 287.761 185.129L287.786 185.104ZM312.642 279.268C309.569 282.606 305.257 281.345 303.968 278.65C309.717 279.07 312.84 276.128 315.863 271.603L317.053 270.094C316.755 272.913 314.054 277.735 312.642 279.268Z"
        fill="#81D1FE" />
    <path
        d="M53.533 370.118C53.533 373.069 53.038 375.76 52.035 378.19C51.0451 380.621 49.6383 382.7 47.8276 384.416C46.017 386.132 43.8547 387.471 41.3146 388.433C38.7746 389.394 35.9479 389.875 32.8217 389.875C27.7024 389.875 23.4169 388.575 19.991 386.002C16.5652 383.428 14.2335 379.724 13.0352 374.902L19.991 371.47C21.9189 379.412 26.1914 383.376 32.8217 383.376C36.7425 383.376 39.8687 382.259 42.2265 380.036C44.5711 377.813 45.7565 374.928 45.7565 371.379C45.7565 365.673 42.4088 361.371 35.7265 358.485L27.8588 355.145C19.3658 351.596 15.1193 345.916 15.1193 338.105C15.1193 335.882 15.5492 333.789 16.4349 331.84C17.3077 329.89 18.5452 328.2 20.1343 326.783C21.7365 325.367 23.6383 324.262 25.8788 323.443C28.1063 322.637 30.5812 322.221 33.2906 322.221C37.2114 322.221 40.5852 323.027 43.4118 324.652C46.2385 326.277 48.4399 328.707 50.016 331.957L43.6854 336.012C40.8587 331.086 37.2114 328.616 32.7435 328.616C29.8517 328.616 27.481 329.487 25.6443 331.229C23.8077 332.97 22.8828 335.232 22.8828 337.988C22.8828 342.433 25.7746 345.89 31.5581 348.36L40.7806 352.415C49.2735 356.029 53.52 361.917 53.52 370.092L53.533 370.118Z"
        fill="#81D1FE" />
    <path
        d="M58.8613 368.219C58.8613 365.269 59.4084 362.487 60.4896 359.875C61.5707 357.262 63.1729 354.896 65.2831 352.791C67.3934 350.685 69.7511 349.112 72.3823 348.06C75.0136 347.007 77.8142 346.487 80.8362 346.487C83.8582 346.487 86.6719 347.033 89.2901 348.112C91.9083 349.19 94.2791 350.789 96.3893 352.895C98.4995 354.935 100.089 357.275 101.183 359.888C102.264 362.5 102.811 365.282 102.811 368.232C102.811 374.185 100.675 379.294 96.3893 383.57C94.2791 385.61 91.8953 387.196 89.251 388.301C86.5937 389.406 83.7931 389.965 80.8492 389.965C74.7661 389.965 69.5817 387.833 65.3092 383.557C61.0236 379.294 58.8874 374.172 58.8874 368.219H58.8613ZM66.1819 368.219C66.1819 370.39 66.5727 372.379 67.3543 374.211C68.1358 376.044 69.191 377.656 70.5196 379.034C71.8483 380.411 73.3983 381.503 75.1699 382.283C76.9414 383.063 78.8302 383.453 80.8232 383.453C82.8162 383.453 84.6919 383.063 86.4765 382.283C88.248 381.503 89.8111 380.424 91.1267 379.034C92.4554 377.656 93.4845 376.044 94.24 374.211C94.9955 372.379 95.3732 370.377 95.3732 368.219C95.3732 366.062 94.9955 364.06 94.24 362.227C93.4845 360.395 92.4424 358.783 91.1267 357.405C89.7981 356.027 88.248 354.935 86.4765 354.156C84.6919 353.376 82.8162 352.986 80.8232 352.986C78.8302 352.986 76.8633 353.376 75.0787 354.156C73.3072 354.935 71.744 356.014 70.4284 357.405C69.0998 358.783 68.0577 360.395 67.3152 362.227C66.5597 364.06 66.1819 366.062 66.1819 368.219Z"
        fill="#81D1FE" />
    <path
        d="M118.963 367.766C118.963 370.417 119.145 372.718 119.51 374.667C119.874 376.617 120.487 378.242 121.359 379.542C122.232 380.841 123.405 381.803 124.889 382.427C126.361 383.064 128.224 383.376 130.452 383.376C132.679 383.376 134.516 383.064 135.962 382.427C137.407 381.79 138.554 380.828 139.4 379.542C140.247 378.255 140.846 376.63 141.211 374.667C141.576 372.718 141.784 370.417 141.849 367.766V347.918H148.714V371.457C148.714 377.592 147.164 382.206 144.064 385.3C140.964 388.393 136.365 389.94 130.282 389.94C124.199 389.94 119.875 388.432 116.774 385.43C113.674 382.427 112.124 377.943 112.124 371.99V347.905H118.989V367.753L118.963 367.766Z"
        fill="#81D1FE" />
    <path d="M161.531 319.971H168.395V388.249H161.531V319.971Z" fill="#81D1FE" />
    <path
        d="M238.359 364.516C238.359 360.422 237.551 357.393 235.923 355.405C234.295 353.416 231.768 352.428 228.329 352.428C224.473 352.428 221.425 353.871 219.198 356.756C218.351 357.9 217.778 359.122 217.478 360.409C217.179 361.709 217.022 363.19 217.022 364.867C217.022 365.283 217.036 365.699 217.062 366.089C217.088 366.479 217.114 366.921 217.114 367.402V388.237H210.249V364.516C210.249 360.422 209.441 357.393 207.813 355.405C206.185 353.416 203.658 352.428 200.219 352.428C198.356 352.428 196.624 352.805 195.022 353.559C193.419 354.313 192.091 355.379 190.996 356.756C190.15 357.835 189.59 359.018 189.329 360.279C189.056 361.54 188.925 362.956 188.925 364.516C188.925 364.997 188.938 365.478 188.964 365.959C188.99 366.44 189.017 366.921 189.017 367.402V388.237H182.152V347.918H189.017V354.144C192.273 349.036 196.91 346.475 202.941 346.475C206.198 346.475 208.972 347.164 211.252 348.555C213.545 349.946 215.29 351.986 216.488 354.69C219.927 349.218 224.708 346.488 230.856 346.488C235.376 346.488 238.906 347.736 241.433 350.231C243.96 352.727 245.237 356.263 245.237 360.825V388.237H238.372V364.516H238.359Z"
        fill="#81D1FE" />
    <path
        d="M295.491 388.236H288.809V380.931C287.18 383.882 285.122 386.117 282.621 387.651C280.12 389.185 277.307 389.952 274.167 389.952C271.276 389.952 268.631 389.445 266.261 388.418C263.89 387.391 261.845 385.935 260.164 384.038C258.484 382.14 257.168 379.865 256.231 377.188C255.293 374.51 254.824 371.521 254.824 368.219C254.824 364.918 255.28 361.811 256.178 359.108C257.077 356.404 258.38 354.117 260.06 352.258C261.741 350.399 263.747 348.969 266.065 347.969C268.384 346.981 270.963 346.487 273.79 346.487C280.537 346.487 285.474 349.489 288.613 355.507V347.93H295.478V388.249L295.491 388.236ZM288.809 368.479C288.809 366.14 288.483 364.034 287.819 362.162C287.154 360.304 286.216 358.705 285.018 357.379C283.807 356.053 282.387 355.052 280.719 354.351C279.065 353.662 277.268 353.311 275.34 353.311C271.184 353.311 267.941 354.571 265.622 357.093C263.304 359.615 262.144 363.202 262.144 367.829C262.144 372.704 263.304 376.46 265.622 379.099C267.941 381.75 271.276 383.063 275.613 383.063C279.716 383.063 282.934 381.802 285.279 379.281C287.623 376.759 288.809 373.146 288.809 368.453V368.479Z"
        fill="#81D1FE" />
    <path
        d="M302.082 353.611V347.931H309.494V331.697H316.359V347.931H323.953V353.611H316.359V388.251H309.494V353.611H302.082Z"
        fill="#81D1FE" />
    <path
        d="M334.986 369.117V369.754C334.986 371.925 335.311 373.888 335.976 375.655C336.64 377.436 337.552 378.944 338.737 380.205C339.923 381.465 341.329 382.44 342.984 383.129C344.638 383.818 346.436 384.169 348.363 384.169C353.782 384.169 358.159 381.257 361.468 375.421L366.704 378.944C362.601 386.275 356.374 389.953 347.999 389.953C344.925 389.953 342.124 389.42 339.597 388.38C337.07 387.327 334.895 385.846 333.084 383.909C331.273 381.985 329.88 379.672 328.877 376.968C327.887 374.264 327.392 371.262 327.392 367.947C327.392 364.633 327.887 361.851 328.877 359.2C329.867 356.548 331.26 354.287 333.032 352.389C334.803 350.491 336.927 349.023 339.402 347.97C341.877 346.917 344.586 346.397 347.543 346.397C353.509 346.397 358.237 348.282 361.728 352.038C365.219 355.794 366.965 361.046 366.965 367.779V369.13H334.973L334.986 369.117ZM355.997 355.275C353.86 353.377 350.943 352.428 347.269 352.428C343.961 352.428 341.173 353.416 338.907 355.405C336.653 357.393 335.337 360.097 334.973 363.528H359.553C359.305 359.915 358.12 357.172 355.984 355.275H355.997Z"
        fill="#81D1FE" />
    </svg>