<svg
    width="60" height="60" viewBox="0 0 60 60" fill="none" xmlns="http://www.w3.org/2000/svg">
    <rect width="60" height="60" rx="30" fill="#81D1FE" />
    <g clip-path="url(#clip0_38_5561)">
        <path
        d="M23.3344 30C23.3344 26.3183 26.3183 23.3328 30 23.3328C33.6817 23.3328 36.6672 26.3183 36.6672 30C36.6672 33.6817 33.6817 36.6672 30 36.6672C26.3183 36.6672 23.3344 33.6817 23.3344 30ZM19.7302 30C19.7302 35.6721 24.3279 40.2698 30 40.2698C35.6721 40.2698 40.2698 35.6721 40.2698 30C40.2698 24.3279 35.6721 19.7302 30 19.7302C24.3279 19.7302 19.7302 24.3279 19.7302 30ZM38.2763 19.3231C38.2763 20.6478 39.3506 21.7237 40.6769 21.7237C42.0016 21.7237 43.0775 20.6478 43.0775 19.3231C43.0775 17.9984 42.0032 16.9241 40.6769 16.9241C39.3506 16.9241 38.2763 17.9984 38.2763 19.3231ZM21.9192 46.2795C19.9693 46.1906 18.9095 45.8659 18.2052 45.5913C17.2714 45.2278 16.6058 44.7948 15.9047 44.0953C15.2052 43.3958 14.7706 42.7302 14.4087 41.7964C14.1341 41.0921 13.8094 40.0323 13.7205 38.0824C13.6236 35.9742 13.6042 35.3409 13.6042 30C13.6042 24.6591 13.6252 24.0275 13.7205 21.9176C13.8094 19.9677 14.1357 18.9095 14.4087 18.2036C14.7722 17.2698 15.2052 16.6042 15.9047 15.9031C16.6042 15.2036 17.2698 14.769 18.2052 14.4071C18.9095 14.1325 19.9693 13.8078 21.9192 13.7189C24.0275 13.622 24.6607 13.6026 30 13.6026C35.3409 13.6026 35.9725 13.6236 38.0824 13.7189C40.0323 13.8078 41.0905 14.1341 41.7964 14.4071C42.7302 14.769 43.3958 15.2036 44.0969 15.9031C44.7965 16.6026 45.2294 17.2698 45.5929 18.2036C45.8675 18.9079 46.1922 19.9677 46.2811 21.9176C46.378 24.0275 46.3974 24.6591 46.3974 30C46.3974 35.3393 46.378 35.9725 46.2811 38.0824C46.1922 40.0323 45.8659 41.0921 45.5929 41.7964C45.2294 42.7302 44.7965 43.3958 44.0969 44.0953C43.3974 44.7948 42.7302 45.2278 41.7964 45.5913C41.0921 45.8659 40.0323 46.1906 38.0824 46.2795C35.9742 46.3764 35.3409 46.3958 30 46.3958C24.6607 46.3958 24.0275 46.3764 21.9192 46.2795ZM21.7544 10.1212C19.6252 10.2181 18.1712 10.5557 16.8998 11.0501C15.5848 11.5606 14.4701 12.2456 13.357 13.357C12.2456 14.4685 11.5606 15.5832 11.0501 16.8998C10.5557 18.1712 10.2181 19.6252 10.1212 21.7544C10.0226 23.8869 10 24.5687 10 30C10 35.4313 10.0226 36.1131 10.1212 38.2456C10.2181 40.3748 10.5557 41.8288 11.0501 43.1002C11.5606 44.4152 12.2439 45.5315 13.357 46.643C14.4685 47.7544 15.5832 48.4378 16.8998 48.9499C18.1729 49.4443 19.6252 49.7819 21.7544 49.8788C23.8885 49.9758 24.5687 50 30 50C35.433 50 36.1131 49.9774 38.2456 49.8788C40.3748 49.7819 41.8288 49.4443 43.1002 48.9499C44.4152 48.4378 45.5299 47.7544 46.643 46.643C47.7544 45.5315 48.4378 44.4152 48.9499 43.1002C49.4443 41.8288 49.7835 40.3748 49.8788 38.2456C49.9758 36.1115 49.9984 35.4313 49.9984 30C49.9984 24.5687 49.9758 23.8869 49.8788 21.7544C49.7819 19.6252 49.4443 18.1712 48.9499 16.8998C48.4378 15.5848 47.7544 14.4701 46.643 13.357C45.5315 12.2456 44.4152 11.5606 43.1018 11.0501C41.8288 10.5557 40.3748 10.2165 38.2472 10.1212C36.1147 10.0242 35.433 10 30.0016 10C24.5687 10 23.8885 10.0226 21.7544 10.1212Z"
        fill="white" />
    </g>
    <defs>
        <clipPath id="clip0_38_5561">
        <rect width="40" height="40" fill="white" transform="translate(10 10)" />
        </clipPath>
    </defs>
</svg>