<svg 
    width="60" height="60" viewBox="0 0 60 60" fill="none" xmlns="http://www.w3.org/2000/svg">
    <rect width="60" height="60" rx="30" fill="#81D1FE" />
    <path
    d="M40.2223 16.2667C38.7033 14.5325 37.8661 12.3054 37.8668 10H31.0001V37.5556C30.9471 39.0467 30.3176 40.4592 29.244 41.4954C28.1705 42.5317 26.7367 43.1109 25.2445 43.1111C22.089 43.1111 19.4668 40.5333 19.4668 37.3333C19.4668 33.5111 23.1557 30.6444 26.9557 31.8222V24.8C19.289 23.7778 12.5779 29.7333 12.5779 37.3333C12.5779 44.7333 18.7112 50 25.2223 50C32.2001 50 37.8668 44.3333 37.8668 37.3333V23.3556C40.6512 25.3552 43.9942 26.4281 47.4223 26.4222V19.5556C47.4223 19.5556 43.2445 19.7556 40.2223 16.2667Z"
    fill="white" />
</svg>