<svg width="60" height="60" viewBox="0 0 60 60" fill="none" xmlns="http://www.w3.org/2000/svg">
    <rect width="60" height="60" rx="30" fill="#81D1FE" />
    <path
    d="M36.4166 23.5667C37.0666 23.5667 37.6999 23.6167 38.3166 23.7C37.1832 18.75 31.9832 15 25.7332 15C18.6499 15 12.8999 19.8 12.8999 25.7167C12.8999 29.1333 14.8166 32.15 17.7999 34.1167L16.1166 37.5L20.7166 35.5167C21.6999 35.8667 22.7332 36.15 23.8332 36.3C23.6832 35.65 23.5999 34.9833 23.5999 34.2833C23.5832 28.3833 29.3332 23.5667 36.4166 23.5667ZM29.9999 19.8167C30.21 19.8167 30.4181 19.8581 30.6122 19.9385C30.8063 20.0189 30.9827 20.1367 31.1313 20.2853C31.2798 20.4339 31.3977 20.6103 31.4781 20.8044C31.5585 20.9985 31.5999 21.2066 31.5999 21.4167C31.5999 21.6268 31.5585 21.8348 31.4781 22.029C31.3977 22.2231 31.2798 22.3995 31.1313 22.548C30.9827 22.6966 30.8063 22.8145 30.6122 22.8949C30.4181 22.9753 30.21 23.0167 29.9999 23.0167C29.5756 23.0167 29.1686 22.8481 28.8685 22.548C28.5685 22.248 28.3999 21.841 28.3999 21.4167C28.3999 20.9923 28.5685 20.5854 28.8685 20.2853C29.1686 19.9852 29.5756 19.8167 29.9999 19.8167ZM21.4499 23.0333C21.0256 23.0333 20.6186 22.8648 20.3185 22.5647C20.0185 22.2646 19.8499 21.8577 19.8499 21.4333C19.8499 21.009 20.0185 20.602 20.3185 20.302C20.6186 20.0019 21.0256 19.8333 21.4499 19.8333C21.8742 19.8333 22.2812 20.0019 22.5813 20.302C22.8813 20.602 23.0499 21.009 23.0499 21.4333C23.0499 21.8577 22.8813 22.2646 22.5813 22.5647C22.2812 22.8648 21.8742 23.0333 21.4499 23.0333Z"
    fill="white" />
    <path
    d="M47.1001 34.2835C47.1001 29.5501 42.3167 25.7168 36.4167 25.7168C30.5167 25.7168 25.7334 29.5501 25.7334 34.2835C25.7334 39.0168 30.5167 42.8501 36.4167 42.8501C37.3834 42.8501 38.3167 42.7168 39.2001 42.5168L44.9667 45.0001L42.9667 41.0001C45.4667 39.4335 47.1001 37.0335 47.1001 34.2835ZM33.2001 33.7501C32.8836 33.7501 32.5743 33.6563 32.3112 33.4805C32.048 33.3047 31.843 33.0548 31.7219 32.7624C31.6008 32.4701 31.5691 32.1484 31.6308 31.838C31.6925 31.5276 31.8449 31.2425 32.0687 31.0188C32.2925 30.795 32.5776 30.6426 32.8879 30.5809C33.1983 30.5191 33.52 30.5508 33.8124 30.6719C34.1047 30.793 34.3546 30.9981 34.5304 31.2612C34.7062 31.5243 34.8001 31.8337 34.8001 32.1501C34.8167 33.0335 34.0834 33.7501 33.2001 33.7501ZM39.6167 33.7501C39.1924 33.7501 38.7854 33.5816 38.4854 33.2815C38.1853 32.9814 38.0167 32.5745 38.0167 32.1501C38.0167 31.7258 38.1853 31.3188 38.4854 31.0188C38.7854 30.7187 39.1924 30.5501 39.6167 30.5501C40.0411 30.5501 40.448 30.7187 40.7481 31.0188C41.0482 31.3188 41.2167 31.7258 41.2167 32.1501C41.2167 32.5745 41.0482 32.9814 40.7481 33.2815C40.448 33.5816 40.0411 33.7501 39.6167 33.7501Z"
    fill="white" />
</svg>