<svg width="60" height="60" viewBox="0 0 60 60" fill="none" xmlns="http://www.w3.org/2000/svg">
    <rect width="60" height="60" rx="30" fill="#81D1FE" />
    <path
    d="M43.3949 16.5291C41.653 14.7696 39.5781 13.3745 37.2914 12.4252C35.0047 11.4759 32.5518 10.9915 30.0759 11.0001C19.7019 11.0001 11.247 19.4551 11.247 29.8291C11.247 33.154 12.121 36.384 13.755 39.234L11.095 49L21.0699 46.378C23.8249 47.879 26.9219 48.677 30.0759 48.677C40.4499 48.677 48.9049 40.222 48.9049 29.8481C48.9049 24.8131 46.9479 20.0821 43.3949 16.5291ZM30.0759 45.485C27.2639 45.485 24.5089 44.725 22.0959 43.3L21.5259 42.958L15.598 44.516L17.175 38.74L16.795 38.151C15.2327 35.6563 14.4031 32.7726 14.401 29.8291C14.401 21.2031 21.4309 14.1731 30.0569 14.1731C34.2369 14.1731 38.1699 15.8071 41.1149 18.7711C42.5731 20.2226 43.7287 21.9491 44.5147 23.8506C45.3007 25.752 45.7015 27.7906 45.6939 29.8481C45.7319 38.474 38.7019 45.485 30.0759 45.485ZM38.6639 33.781C38.1889 33.553 35.8709 32.413 35.4529 32.2421C35.0159 32.09 34.7119 32.0141 34.3889 32.47C34.0659 32.945 33.1729 34.009 32.9069 34.313C32.6409 34.636 32.3559 34.674 31.8809 34.427C31.4059 34.199 29.8859 33.686 28.0999 32.09C26.6939 30.8361 25.7629 29.2971 25.4779 28.8221C25.2119 28.3471 25.4399 28.1001 25.6869 27.8531C25.8959 27.6441 26.1619 27.3021 26.3899 27.0361C26.6179 26.7701 26.7129 26.5611 26.8649 26.2571C27.0169 25.9341 26.9409 25.6681 26.8269 25.4401C26.7129 25.2121 25.7629 22.8941 25.3829 21.9441C25.0029 21.0321 24.6039 21.1461 24.3189 21.1271H23.4069C23.0839 21.1271 22.5899 21.2411 22.1529 21.7161C21.7349 22.1911 20.5189 23.3311 20.5189 25.6491C20.5189 27.9671 22.2099 30.2091 22.4379 30.5131C22.6659 30.8361 25.7629 35.586 30.4749 37.619C31.5959 38.113 32.4699 38.398 33.1539 38.607C34.2749 38.968 35.3009 38.911 36.1179 38.797C37.0299 38.664 38.9109 37.657 39.2909 36.555C39.6899 35.453 39.6899 34.522 39.5569 34.313C39.4239 34.104 39.1389 34.009 38.6639 33.781Z"
    fill="white" />
</svg>