<svg width="150" height="30" viewBox="0 0 204 24" fill="none" xmlns="http://www.w3.org/2000/svg">
    <path
    d="M14.4436 20.7714V23.5509H13.5023C11.1107 23.5509 9.30832 23.4013 8.08813 23.0987C6.87142 22.7995 5.69307 22.2081 4.55655 21.328C3.14113 20.2392 2.02552 18.8755 1.21671 17.23C0.404408 15.5881 0 13.8626 0 12.0537C0 8.76628 1.14349 6.01111 3.427 3.7882C5.71399 1.56528 8.54832 0.455566 11.937 0.455566H14.4436V3.23508H12.7388C9.95328 3.23508 7.66978 4.06302 5.88132 5.7189C4.09287 7.37478 3.20039 9.48637 3.20039 12.0572C3.20039 13.6087 3.5769 15.0663 4.33342 16.4334C5.08646 17.8006 6.0905 18.8546 7.34556 19.5921C8.69126 20.3783 10.8144 20.7714 13.715 20.7714H14.4471H14.4436Z"
    fill="white" />
    <path
    d="M19.1396 19.8325C19.6974 19.8325 20.1716 20.0308 20.5655 20.4239C20.9595 20.817 21.1582 21.2936 21.1582 21.8467C21.1582 22.3998 20.9595 22.8764 20.5655 23.2695C20.1716 23.6626 19.6835 23.8609 19.1048 23.8609C18.5714 23.8609 18.1077 23.6591 17.7138 23.2521C17.3198 22.8486 17.1211 22.379 17.1211 21.8467C17.1211 21.3145 17.3163 20.817 17.7138 20.4239C18.1112 20.0308 18.5853 19.8325 19.1396 19.8325Z"
    fill="white" />
    <path
    d="M36.0231 0C39.3873 0 42.2286 1.16886 44.5505 3.50657C46.8689 5.84428 48.0298 8.7038 48.0298 12.0851C48.0298 15.4665 46.8514 18.1242 44.4982 20.4724C42.1415 22.824 39.3281 23.9963 36.058 23.9963C32.7878 23.9963 29.9082 22.8205 27.5654 20.4724C25.2227 18.1242 24.0513 15.2925 24.0513 11.9808C24.0513 8.66902 25.2227 5.84428 27.5654 3.50657C29.9082 1.16886 32.7286 0 36.0231 0ZM36.0928 2.8143C33.635 2.8143 31.5467 3.70486 29.828 5.48945C28.1093 7.27404 27.2517 9.43782 27.2517 11.9843C27.2517 14.5307 28.1162 16.6736 29.8454 18.4791C31.5746 20.2845 33.6455 21.189 36.058 21.189C38.4705 21.189 40.5064 20.2845 42.2356 18.4791C43.9648 16.6736 44.8294 14.5307 44.8294 12.0538C44.8294 9.57697 43.9753 7.30187 42.2705 5.50684C40.5657 3.71181 38.5053 2.8143 36.0928 2.8143Z"
    fill="white" />
    <path
    d="M52.6601 19.8325C53.2179 19.8325 53.6921 20.0308 54.086 20.4239C54.48 20.817 54.6787 21.2936 54.6787 21.8467C54.6787 22.3998 54.48 22.8764 54.086 23.2695C53.6921 23.6626 53.204 23.8609 52.6253 23.8609C52.0919 23.8609 51.6282 23.6591 51.2343 23.2521C50.8403 22.8486 50.6416 22.379 50.6416 21.8467C50.6416 21.3145 50.8403 20.817 51.2343 20.4239C51.6282 20.0308 52.1058 19.8325 52.6601 19.8325Z"
    fill="white" />
    <path
    d="M83.2207 0.452148H86.2851V15.5951C86.2851 17.1466 86.1631 18.3433 85.9191 19.1886C85.675 20.034 85.2288 20.8271 84.5803 21.5681C83.1649 23.1892 81.251 23.9997 78.8385 23.9997C77.0988 23.9997 75.6241 23.5371 74.4179 22.6117C73.6753 22.0551 73.0269 21.2341 72.4691 20.1453C71.078 22.7161 69.0456 23.9997 66.3786 23.9997C64.1962 23.9997 62.4321 23.3179 61.0864 21.9508C59.7407 20.5836 59.0679 18.7781 59.0679 16.5309V0.452148H62.1323V15.8038C62.1323 17.6336 62.5018 18.9521 63.2444 19.7626C64.102 20.7123 65.1932 21.1854 66.518 21.1854C68.0485 21.1854 69.2547 20.5732 70.1368 19.3452C70.7399 18.5103 71.0432 17.3066 71.0432 15.7343V0.452148H74.1076V15.769C74.1076 17.4841 74.4911 18.7781 75.2546 19.6583C76.1366 20.6775 77.2836 21.1854 78.699 21.1854C80.3689 21.1854 81.6345 20.5384 82.4921 19.2408C82.9802 18.4998 83.2242 17.2614 83.2242 15.5255V0.452148H83.2207Z"
    fill="white" />
    <path
    d="M92.6157 19.8325C93.1735 19.8325 93.6477 20.0308 94.0416 20.4239C94.4355 20.817 94.6343 21.2936 94.6343 21.8467C94.6343 22.3998 94.4355 22.8764 94.0416 23.2695C93.6477 23.6626 93.1596 23.8609 92.5809 23.8609C92.0475 23.8609 91.5838 23.6591 91.1898 23.2521C90.7959 22.8486 90.5972 22.379 90.5972 21.8467C90.5972 21.3145 90.7959 20.817 91.1898 20.4239C91.5838 20.0308 92.0614 19.8325 92.6157 19.8325Z"
    fill="white" />
    <path
    d="M114.206 18.3292C114.206 19.1723 114.065 19.9411 113.778 20.6356C113.495 21.3302 113.093 21.9244 112.576 22.4147C112.059 22.9049 111.441 23.2874 110.715 23.5623C109.989 23.8371 109.181 23.9745 108.288 23.9745C106.825 23.9745 105.601 23.6031 104.622 22.8678C103.643 22.1324 102.977 21.0739 102.634 19.696L104.622 18.7155C105.173 20.9848 106.394 22.1175 108.288 22.1175C109.408 22.1175 110.302 21.7981 110.975 21.163C111.645 20.5279 111.984 19.7034 111.984 18.6895C111.984 17.059 111.028 15.8297 109.118 15.0052L106.87 14.0507C104.443 13.0367 103.23 11.4137 103.23 9.1816C103.23 8.5465 103.353 7.94854 103.606 7.39144C103.855 6.83434 104.209 6.35152 104.663 5.94669C105.121 5.54186 105.664 5.22617 106.304 4.99219C106.941 4.76192 107.648 4.64307 108.422 4.64307C109.542 4.64307 110.506 4.87334 111.314 5.33759C112.122 5.80184 112.751 6.49636 113.201 7.42487L111.392 8.58364C110.585 7.17603 109.542 6.47036 108.266 6.47036C107.439 6.47036 106.762 6.7192 106.237 7.21688C105.712 7.71456 105.448 8.3608 105.448 9.14817C105.448 10.4184 106.274 11.4063 107.927 12.112L110.562 13.2707C112.989 14.3032 114.202 15.9857 114.202 18.3218L114.206 18.3292Z"
    fill="white" />
    <path
    d="M115.729 17.7865C115.729 16.9434 115.885 16.1486 116.194 15.4021C116.503 14.6556 116.961 13.9796 117.563 13.378C118.166 12.7763 118.84 12.3269 119.592 12.0261C120.344 11.7252 121.144 11.5767 122.008 11.5767C122.871 11.5767 123.675 11.7326 124.423 12.0409C125.171 12.3492 125.849 12.806 126.452 13.4077C127.055 13.9908 127.509 14.6593 127.821 15.4058C128.13 16.1523 128.287 16.9471 128.287 17.7902C128.287 19.4912 127.676 20.9508 126.452 22.1728C125.849 22.7559 125.168 23.209 124.412 23.5247C123.653 23.8404 122.853 24.0001 122.011 24.0001C120.273 24.0001 118.792 23.391 117.571 22.169C116.346 20.9508 115.736 19.4875 115.736 17.7865H115.729ZM117.82 17.7865C117.82 18.4067 117.932 18.975 118.155 19.4987C118.379 20.0223 118.68 20.4829 119.06 20.8766C119.439 21.2702 119.882 21.5822 120.389 21.8051C120.895 22.0279 121.434 22.1393 122.004 22.1393C122.573 22.1393 123.109 22.0279 123.619 21.8051C124.125 21.5822 124.572 21.274 124.948 20.8766C125.328 20.4829 125.622 20.0223 125.838 19.4987C126.053 18.975 126.161 18.403 126.161 17.7865C126.161 17.17 126.053 16.598 125.838 16.0743C125.622 15.5507 125.324 15.0901 124.948 14.6964C124.568 14.3027 124.125 13.9908 123.619 13.7679C123.109 13.5451 122.573 13.4337 122.004 13.4337C121.434 13.4337 120.872 13.5451 120.362 13.7679C119.856 13.9908 119.41 14.299 119.034 14.6964C118.654 15.0901 118.356 15.5507 118.144 16.0743C117.928 16.598 117.82 17.17 117.82 17.7865Z"
    fill="white" />
    <path
    d="M132.902 17.657C132.902 18.4146 132.954 19.072 133.059 19.6291C133.163 20.1862 133.338 20.6505 133.587 21.0219C133.837 21.3933 134.172 21.6681 134.596 21.8464C135.016 22.0284 135.549 22.1175 136.185 22.1175C136.822 22.1175 137.346 22.0284 137.76 21.8464C138.173 21.6644 138.5 21.3895 138.742 21.0219C138.984 20.6542 139.155 20.1899 139.26 19.6291C139.364 19.072 139.423 18.4146 139.442 17.657V11.9856H141.403V18.7117C141.403 20.4648 140.961 21.7832 140.075 22.6672C139.189 23.5511 137.875 23.9931 136.137 23.9931C134.399 23.9931 133.163 23.5622 132.277 22.7043C131.391 21.8464 130.948 20.565 130.948 18.864V11.9819H132.91V17.6532L132.902 17.657Z"
    fill="white" />
    <path d="M145.065 4H147.027V23.5097H145.065V4Z" fill="white" />
    <path
    d="M167.019 16.7283C167.019 15.5584 166.788 14.693 166.323 14.1248C165.857 13.5565 165.135 13.2743 164.153 13.2743C163.051 13.2743 162.18 13.6865 161.544 14.511C161.302 14.8379 161.138 15.187 161.052 15.5547C160.967 15.9261 160.922 16.3495 160.922 16.8286C160.922 16.9474 160.926 17.0663 160.933 17.1777C160.941 17.2891 160.948 17.4154 160.948 17.5528V23.5064H158.986V16.7283C158.986 15.5584 158.756 14.693 158.29 14.1248C157.825 13.5565 157.103 13.2743 156.12 13.2743C155.588 13.2743 155.093 13.382 154.635 13.5974C154.178 13.8128 153.798 14.1173 153.485 14.511C153.243 14.8193 153.083 15.1573 153.009 15.5175C152.931 15.8778 152.893 16.2826 152.893 16.7283C152.893 16.8657 152.897 17.0031 152.905 17.1406C152.912 17.278 152.92 17.4154 152.92 17.5528V23.5064H150.958V11.9855H152.92V13.7645C153.85 12.3049 155.175 11.5732 156.898 11.5732C157.829 11.5732 158.622 11.7701 159.273 12.1675C159.928 12.5649 160.427 13.148 160.769 13.9205C161.752 12.3569 163.118 11.577 164.875 11.577C166.166 11.577 167.175 11.9335 167.897 12.6466C168.619 13.3597 168.984 14.3699 168.984 15.6735V23.5064H167.022V16.7283H167.019Z"
    fill="white" />
    <path
    d="M183.343 23.5061H181.434V21.4188C180.969 22.2619 180.381 22.9007 179.666 23.339C178.951 23.7772 178.147 23.9963 177.25 23.9963C176.424 23.9963 175.669 23.8515 174.991 23.5581C174.314 23.2647 173.729 22.8487 173.249 22.3065C172.769 21.7642 172.393 21.1143 172.125 20.3492C171.857 19.5841 171.723 18.7299 171.723 17.7865C171.723 16.8431 171.853 15.9555 172.11 15.183C172.367 14.4105 172.739 13.7568 173.219 13.2257C173.7 12.6946 174.273 12.286 174.935 12.0001C175.598 11.7178 176.335 11.5767 177.142 11.5767C179.07 11.5767 180.481 12.4346 181.378 14.1542V11.9889H183.34V23.5098L183.343 23.5061ZM181.434 17.8608C181.434 17.1923 181.341 16.5906 181.151 16.0558C180.961 15.5247 180.693 15.0678 180.351 14.689C180.005 14.3102 179.599 14.0242 179.123 13.8236C178.65 13.6268 178.136 13.5265 177.585 13.5265C176.398 13.5265 175.471 13.8868 174.809 14.6073C174.146 15.3278 173.815 16.3529 173.815 17.6751C173.815 19.0678 174.146 20.1412 174.809 20.8951C175.471 21.6528 176.424 22.0279 177.664 22.0279C178.836 22.0279 179.755 21.6677 180.425 20.9471C181.095 20.2266 181.434 19.1941 181.434 17.8534V17.8608Z"
    fill="white" />
    <path
    d="M185.227 13.6119V11.9889H187.344V7.3501H189.306V11.9889H191.476V13.6119H189.306V23.5098H187.344V13.6119H185.227Z"
    fill="white" />
    <path
    d="M194.628 18.0429V18.2249C194.628 18.8451 194.722 19.4059 194.911 19.911C195.101 20.4199 195.362 20.8507 195.7 21.2109C196.039 21.5712 196.441 21.8498 196.914 22.0466C197.386 22.2434 197.9 22.3437 198.451 22.3437C199.999 22.3437 201.25 21.5118 202.195 19.8442L203.692 20.8507C202.519 22.9454 200.74 23.9965 198.347 23.9965C197.468 23.9965 196.668 23.8442 195.946 23.5471C195.224 23.2462 194.602 22.8228 194.085 22.2694C193.568 21.7198 193.169 21.0587 192.883 20.2862C192.6 19.5136 192.458 18.6557 192.458 17.7086C192.458 16.7616 192.6 15.9668 192.883 15.2091C193.166 14.4514 193.564 13.8052 194.07 13.2629C194.576 12.7207 195.183 12.301 195.89 12.0002C196.597 11.6993 197.372 11.5508 198.217 11.5508C199.921 11.5508 201.272 12.0893 202.27 13.1627C203.267 14.236 203.766 15.7365 203.766 17.6603V18.0466H194.625L194.628 18.0429ZM200.632 14.0875C200.022 13.5452 199.188 13.2741 198.138 13.2741C197.193 13.2741 196.396 13.5564 195.749 14.1246C195.105 14.6928 194.729 15.4654 194.625 16.4459H201.648C201.578 15.4134 201.239 14.6297 200.628 14.0875H200.632Z"
    fill="white" />
</svg>