<svg width="30" height="30" viewBox="0 0 37 38" fill="none" xmlns="http://www.w3.org/2000/svg">
    <path
    d="M18.5 37.5C28.7173 37.5 37 29.2173 37 19C37 8.78273 28.7173 0.5 18.5 0.5C8.28273 0.5 0 8.78273 0 19C0 29.2173 8.28273 37.5 18.5 37.5Z"
    fill="white" />
    <path
    d="M16.1481 27.6372C16.0294 27.9112 15.8763 28.1853 15.6972 28.4528C15.1987 29.2058 14.9333 29.3504 14.4673 29.7021C15.2182 30.1833 16.0467 30.5825 16.8753 30.7745C16.83 30.5393 16.0748 29.6482 16.0316 29.1562C15.9928 28.6945 16.051 28.1097 16.146 27.6372H16.1481Z"
    fill="#81D1FE" />
    <path
    d="M15.2054 28.4548C15.5593 27.9197 15.816 27.363 15.9045 26.8344C16.0577 25.9174 15.8851 24.6529 15.5744 23.7165C14.8969 21.684 13.9626 19.6622 13.2398 17.6297C12.1242 14.4924 11.902 11.4242 12.8773 8.22648C13.1534 7.3181 13.4793 6.58449 13.8935 5.75162C13.9842 5.57037 14.2582 5.11294 14.2647 4.95975C13.7684 4.91875 12.8967 5.15394 12.3637 5.41934C10.3528 6.4205 9.87376 9.02267 10.0054 10.9516C10.1823 13.556 10.8792 15.8064 12.0034 18.1756L12.0789 18.4172C11.5093 17.8541 10.6333 16.1301 10.2924 15.4353C9.49185 13.8063 8.55973 11.1307 8.44537 9.37006C8.27923 6.79378 8.77334 6.56291 8.74529 6.20258C7.21549 6.89303 6.333 8.18765 6.13665 9.75844C5.67706 13.4351 10.4455 18.1691 12.0314 21.0518C11.9732 21.0367 9.67525 18.441 9.38612 18.113C7.78512 16.2854 6.14744 14.2702 5.32104 12.0499C5.12038 11.5105 5.00386 10.9883 4.94561 10.464C4.84635 9.56857 5.02113 9.22981 5.00602 8.86732C4.00486 9.90085 3.64236 11.4522 3.84519 12.7814C4.25515 15.4763 6.94794 18.0526 8.88554 19.9427C9.80903 20.8446 10.7282 21.6538 11.656 22.5729C11.8006 22.7153 12.381 23.2461 12.4198 23.4597C11.4618 22.6355 10.5211 21.7983 9.52422 21.0151C7.70097 19.5824 4.10411 16.9349 2.88286 15.0793C2.39091 14.3327 2.49016 14.1601 2.31107 13.8041C1.91837 14.4514 1.9831 15.5281 2.13198 16.074C2.33265 16.8054 2.7685 17.5412 3.32303 18.195C5.83457 21.1575 10.1586 23.1102 12.6895 25.4556C13.8051 26.4891 14.735 28.1786 13.9086 29.5746C13.8978 29.594 13.8353 29.6976 13.831 29.7084L13.8029 29.7818C13.8029 29.7818 13.7878 29.8228 13.7943 29.8206C13.8007 29.8163 13.7878 29.8465 13.7856 29.8594C14.379 29.3848 14.6444 29.3092 15.2097 28.4591L15.2054 28.4548Z"
    fill="#81D1FE" />
    <path
    d="M7.79786 22.8965C5.82789 21.7313 3.97228 20.8294 2.34323 19.1831C2.14041 18.9781 2.05194 18.799 1.84265 18.5962C1.6614 19.3255 2.22456 20.6244 2.80498 21.317C4.99071 23.9235 9.50243 24.5428 11.4422 26.5537C9.4377 25.2548 7.95753 25.2656 5.87321 24.5989C5.65096 24.5277 5.27984 24.3615 5.05976 24.3119C5.20432 26.0078 9.16799 26.161 10.536 27.3132C10.9697 27.68 11.1768 28.1418 11.2286 28.5388C11.3516 29.4882 9.98144 29.9866 9.21115 30.1549C8.95438 30.211 8.12583 30.3491 7.96185 30.2801C8.31571 30.5584 9.69878 30.7548 10.1843 30.7742C11.8932 30.8411 13.7682 29.9305 13.5869 28.2108C13.3345 25.8029 9.61895 23.9753 7.80002 22.8986L7.79786 22.8965Z"
    fill="#81D1FE" />
    <path
    d="M30.2745 16.0847C30.1342 16.1343 28.8634 17.2131 28.831 17.4009C28.8116 17.5152 29.4438 18.3869 29.4179 18.7408C29.4956 18.6502 30.0889 17.8195 30.117 17.7288C30.2076 17.4203 29.9228 16.9823 30.1191 16.4299C30.1666 16.2961 30.2335 16.199 30.2767 16.0825L30.2745 16.0847Z"
    fill="#81D1FE" />
    <path
    d="M30.5465 16.0242C30.2401 16.6025 30.4968 16.8291 30.4105 17.4073C30.4429 17.3922 31.0751 16.5442 31.0967 16.5076C31.2067 16.3177 31.2197 16.0847 31.1808 15.8495C31.1183 15.487 31.2369 15.4287 31.2758 15.1763C31.1312 15.2906 30.6651 15.7977 30.5443 16.0242H30.5465Z"
    fill="#81D1FE" />
    <path
    d="M32.7772 13.7607C32.7341 13.7607 32.7125 13.7694 32.6585 13.819C32.6132 13.86 32.5787 13.8967 32.5355 13.9398C32.4406 14.0348 32.378 14.093 32.2874 14.1772C32.1062 14.3455 31.9724 14.4857 31.8019 14.6389C31.2992 15.0963 31.4028 15.187 31.4567 15.6401C31.4783 15.83 31.4308 15.9012 31.4135 16.0544L32.1601 14.9302C32.2615 14.7662 32.4126 14.5397 32.5248 14.3692C32.6046 14.2462 32.8743 13.8902 32.8333 13.7758C32.816 13.7672 32.8463 13.7629 32.7772 13.7629V13.7607Z"
    fill="#81D1FE" />
    <path
    d="M34.8771 13.3167C34.8124 13.1829 34.1608 13.0966 34.0076 13.0707C34.055 12.9563 34.1672 12.801 34.2298 12.6866C34.2665 12.6197 34.2643 12.5248 34.1759 12.5011C34.1198 12.486 34.0227 12.5054 33.9666 12.5183C33.5609 12.6176 33.4034 12.7449 33.0992 13.0168C33.0841 12.9434 33.0733 12.9628 33.0841 12.8851C33.0906 12.842 33.1014 12.8031 33.1165 12.7621C33.1488 12.6758 33.2071 12.596 33.2718 12.5291C33.4962 12.3026 33.6235 12.4903 33.5264 12.5636C33.4854 12.5938 33.4293 12.5636 33.4509 12.5075C33.4811 12.4816 33.4854 12.5011 33.5027 12.5075C33.4962 12.4514 33.4077 12.4601 33.425 12.5464C33.4401 12.6197 33.5156 12.6111 33.5566 12.5636C33.6321 12.4773 33.5329 12.3587 33.3991 12.4126C33.2999 12.4536 33.2006 12.5615 33.1488 12.6543C33.1229 12.6974 33.1035 12.7427 33.0884 12.7924C33.0819 12.8139 33.0625 12.9304 33.0604 12.9326C32.9935 12.9477 32.974 12.6823 32.9719 12.6348C32.9654 12.5485 32.9805 12.4083 33.0107 12.3285C33.0474 12.2335 33.1467 12.0911 33.2632 12.1062C33.3236 12.1148 33.3516 12.1904 33.3214 12.2378C33.2718 12.3133 33.192 12.1796 33.2848 12.186C33.261 12.1386 33.2114 12.1731 33.2114 12.2098C33.2114 12.2465 33.2481 12.2853 33.2848 12.2853C33.3624 12.2853 33.3797 12.1645 33.3322 12.1127C33.2804 12.0566 33.1877 12.0868 33.1337 12.1213C32.9719 12.2292 32.9331 12.5097 32.9589 12.6866C32.9676 12.7427 32.9848 12.8377 33.0086 12.8894C33.0366 12.9499 32.9805 12.9391 32.9719 12.9844C32.9589 13.0491 32.9848 13.0513 32.9848 13.0793C32.9676 13.1052 32.9309 13.0923 32.9179 13.1656C32.9072 13.2174 32.9223 13.2282 32.9309 13.2735C32.9309 13.2735 32.9072 13.4375 32.9093 13.4828C32.9115 13.554 32.9568 13.8885 33.0194 13.9144L33.0496 13.8885C33.0625 13.9144 33.0733 14.0136 33.0862 14.0503C33.11 14.1258 33.1337 14.1474 33.1984 14.1905C33.315 14.2661 33.3516 14.348 33.3042 14.484C33.2804 14.553 33.2438 14.5768 33.2135 14.6307C33.1747 14.6997 33.2265 14.771 33.2826 14.7062C33.315 14.6695 33.3387 14.6027 33.3473 14.5552C33.356 14.512 33.356 14.43 33.3646 14.402C33.4962 14.5509 33.6386 14.484 33.6861 14.7753C33.699 14.8573 33.6365 14.963 33.6645 14.9997C33.6969 15.0428 33.74 14.9954 33.7508 14.9565C33.7853 14.8206 33.7098 14.7062 33.671 14.6048C33.63 14.4969 33.6365 14.4559 33.7357 14.389C33.8393 14.32 33.8501 14.3049 33.8652 14.1841C33.8824 14.0524 33.9752 14.0632 34.0335 13.9812C34.0637 13.9359 34.0551 13.9144 34.1133 13.8863C34.3291 13.7806 34.5276 13.6533 34.7282 13.5217C34.7843 13.485 34.9268 13.403 34.8879 13.321L34.8771 13.3167Z"
    fill="#81D1FE" />
    <path
    d="M28.9411 21.3086C28.8764 21.4273 28.7879 22.0595 28.7448 22.2407C28.734 21.9537 28.7879 21.2266 28.8484 20.9655C28.939 20.5815 29.0425 20.2556 29.0728 19.8198C29.1353 18.9438 28.9692 18.1497 28.5679 17.5801C28.4211 17.6168 28.2205 17.8585 28.0133 17.921C28.0759 17.811 28.2528 17.6448 28.3499 17.5068C28.8052 16.8616 29.3058 15.6339 29.4482 14.8442C29.4978 14.5658 29.5755 13.7373 29.405 13.5603C29.3705 13.6057 29.336 13.7179 29.3036 13.7718C29.0296 14.2486 28.4966 14.4752 27.9982 14.6996C27.4351 14.9521 27.2581 15.047 26.8029 15.4311C26.7166 15.5044 26.5612 15.677 26.4835 15.7202C26.6497 15.3383 26.928 15.0815 27.01 14.9348C26.8525 14.6413 25.9635 13.7696 25.5751 13.5452C22.8975 11.53 19.1949 10.7446 15.557 12.3779C14.5839 12.803 13.6733 13.4115 12.875 14.1645C13.0282 15.3167 13.3173 16.4689 13.7294 17.6297C14.4523 19.6623 15.3865 21.684 16.0641 23.7166C16.3338 24.5235 16.4978 25.5765 16.4395 26.4374C16.9185 24.707 17.5701 23.2872 18.4656 22.299C18.4828 21.6236 18.554 20.9634 18.731 20.4024C18.3965 20.1693 18.2822 19.8996 17.7449 19.6623C17.4191 19.5177 17.1817 19.1552 16.9422 18.892C16.4028 18.3008 15.79 17.6988 15.3046 17.0752C15.1729 17.0342 15.0651 17.0191 14.9421 16.9048C14.8126 16.7839 14.7069 16.6048 14.5882 16.4711C14.4566 16.3243 14.2797 16.3157 14.1135 16.2272C14.0164 16.1755 13.6388 15.964 13.8416 15.8367C14.025 15.7698 14.4199 16.2445 14.5839 15.9985C14.6184 15.8993 14.2106 15.4073 14.1027 15.2584C14.0294 15.1592 13.9927 15.0966 14.1135 14.9952C14.3336 15.0405 14.5407 15.5238 14.7306 15.6684C14.7587 15.567 14.5041 15.0276 14.4372 14.8765C14.4005 14.7902 14.3271 14.6888 14.4156 14.5917C14.6184 14.3695 14.9377 15.3814 15.0025 15.4828L14.9615 14.9305C14.9464 14.8291 14.8536 14.4623 15.0262 14.4018C15.1492 14.3975 15.1557 14.6068 15.1751 14.6953C15.1988 14.8118 15.2226 14.9283 15.2441 15.0427C15.2851 15.2584 15.352 15.4958 15.4426 15.7051C15.4707 15.5886 15.3758 15.0729 15.6757 15.0599C15.708 15.1355 15.6714 15.3361 15.6714 15.4462C15.6714 15.7288 15.7361 15.813 15.7383 16.2121C15.7383 16.3697 16.5193 17.086 16.6294 17.2111L17.3997 17.7204C17.6435 17.8671 17.883 18.0138 18.1031 18.2037C18.3491 18.4173 18.4742 18.5726 18.7676 18.7496C19.0071 18.8941 19.2121 19.0322 19.4689 19.1078C19.4732 19.1078 19.4883 19.1121 19.512 19.1164C19.7861 18.7129 19.9889 18.9718 20.1809 18.892C20.688 18.5381 20.5542 17.5607 20.1809 17.1702C19.9803 16.9609 19.3891 16.5595 19.758 16.2661C19.9695 16.0956 19.881 16.2208 19.9349 15.9532L20.0493 15.9144L20.1011 15.7418L20.3902 15.6037C20.2845 15.0578 20.7764 15.4397 21.044 15.2239L20.9555 15.0858C21.1605 14.4385 22.7335 13.9617 23.6073 15.0405C23.7799 15.252 24.0238 15.3059 24.218 15.5087C24.8588 16.1755 24.4963 17.0493 24.1532 17.7635C23.8943 18.3008 23.6634 18.7409 23.452 19.179C23.4218 19.5414 23.4045 19.9255 23.4088 20.37C23.4175 21.4208 23.5555 23.052 23.2125 24.0316C23.1154 24.0834 22.9967 24.1179 22.8867 24.1157L22.7982 23.7446L22.7745 24.1265C22.6213 24.1438 22.4594 24.1222 22.3084 24.0769L22.2847 23.9259L22.2501 23.9863C22.2631 24.023 22.2782 24.0575 22.2933 24.092C22.6752 24.9378 24.2999 25.1169 24.8113 25.7038C26.1059 26.3921 26.039 27.2228 26.2872 28.4549C26.6195 29.264 26.7856 29.7689 27.8774 29.5919C28.1212 29.6006 28.419 30.1659 29.2152 29.8185C29.6726 29.62 30.9284 29.1173 31.0104 28.5973C31.0535 28.4419 29.4892 23.7252 29.3489 23.134C29.2065 22.5342 29.0965 21.8804 28.9347 21.3064L28.9411 21.3086ZM26.8654 21.1036C26.7834 21.1209 26.7122 21.123 26.6475 21.1166C26.9604 20.8296 27.0208 20.3743 26.8374 19.8996C26.7403 19.9557 26.5051 20.0097 26.3972 19.973C26.4619 19.9644 26.5849 19.9363 26.6432 19.9147C26.7015 19.8932 26.7554 19.8673 26.8072 19.8327L26.8115 19.8414C26.7964 19.809 26.7834 19.7766 26.7662 19.7443C26.6712 19.8025 26.4296 19.8565 26.3195 19.8198C26.3843 19.8112 26.5073 19.7831 26.5655 19.7615C26.6238 19.74 26.6777 19.7141 26.7295 19.6795L26.736 19.6903C26.7187 19.658 26.6993 19.6256 26.6799 19.5932C26.5742 19.6601 26.2937 19.7249 26.1685 19.6795C26.2419 19.6688 26.3821 19.6364 26.449 19.6127C26.5137 19.5889 26.5763 19.5587 26.6346 19.5199C26.6238 19.5026 26.6108 19.4853 26.6 19.4702C26.5116 19.5048 26.3584 19.5242 26.2785 19.4853C26.3303 19.481 26.4296 19.4659 26.4749 19.4508C26.5029 19.4422 26.5288 19.4249 26.5547 19.4098C26.4706 19.2998 26.3756 19.1897 26.2634 19.0862L26.2764 19.0387C26.6367 19.5112 27.0769 19.2696 27.2042 19.6083C27.379 20.0766 27.0445 20.8922 26.8633 21.1058L26.8654 21.1036ZM29.0296 29.3201C28.762 29.6114 28.3866 29.5013 28.2744 29.2661C28.775 29.3028 29.0469 29.0461 29.3101 28.6512L29.4137 28.5196C29.3878 28.7656 29.1526 29.1863 29.0296 29.3201Z"
    fill="#81D1FE" />
</svg>